<?xml version="1.0" standalone="no"?>
<!DOCTYPE svg PUBLIC "-//W3C//DTD SVG 20010904//EN"
 "http://www.w3.org/TR/2001/REC-SVG-20010904/DTD/svg10.dtd">
<svg version="1.0" xmlns="http://www.w3.org/2000/svg"
 width="1024.000000pt" height="1024.000000pt" viewBox="0 0 1024.000000 1024.000000"
 preserveAspectRatio="xMidYMid meet">

<g transform="translate(0.000000,1024.000000) scale(0.100000,-0.100000)"
fill="#000000" stroke="none">
<path d="M5958 8416 c-92 -32 -287 -168 -416 -289 -87 -83 -210 -208 -318
-324 l-39 -43 -290 -1 -290 -1 -83 98 c-167 197 -331 350 -497 461 -109 73
-178 108 -198 100 -34 -13 -34 -198 -1 -587 20 -225 14 -565 -11 -675 -94
-417 -316 -685 -871 -1048 -394 -259 -455 -300 -534 -369 -319 -277 -553 -709
-615 -1136 -93 -639 111 -1211 614 -1720 204 -207 431 -388 654 -521 50 -30
47 -12 -5 29 -101 80 -296 261 -355 330 -372 432 -524 1048 -374 1520 36 113
41 106 34 -56 -4 -95 -1 -192 7 -265 59 -542 386 -1043 905 -1384 431 -284
1009 -473 1645 -537 166 -17 739 -17 890 0 588 66 1028 189 1495 417 207 101
281 146 145 89 -219 -93 -366 -143 -553 -189 -270 -67 -393 -80 -752 -80 -289
0 -333 3 -455 24 -693 119 -1380 444 -1807 855 -290 278 -444 529 -504 818
-28 135 -30 363 -5 491 51 263 197 514 396 681 185 155 384 244 633 280 124
19 408 21 657 5 376 -23 693 32 910 158 120 71 259 220 322 348 31 62 73 191
87 265 45 247 0 499 -137 775 -66 133 -206 332 -291 415 -55 53 -54 39 -21
246 56 360 94 780 74 816 -8 14 -14 15 -46 4z m-967 -1412 c339 -63 612 -212
778 -422 110 -139 167 -254 196 -394 21 -97 18 -112 -10 -51 -114 251 -397
470 -759 587 -165 54 -178 61 -252 138 -77 80 -104 116 -104 139 0 24 37 25
151 3z"/>
<path d="M7475 6818 c-151 -133 -348 -269 -513 -352 -77 -39 -264 -116 -280
-116 -6 0 -13 -4 -16 -9 -4 -5 22 -3 56 5 258 59 428 150 646 342 61 55 202
203 191 201 -2 0 -40 -32 -84 -71z"/>
<path d="M7425 6408 c-91 -53 -266 -135 -385 -181 -85 -32 -140 -50 -315 -101
-83 -24 -12 -18 113 10 150 34 228 62 385 140 129 64 306 176 275 174 -2 0
-34 -19 -73 -42z"/>
<path d="M4998 4606 c-45 -23 -75 -65 -128 -171 -50 -102 -80 -200 -80 -267 0
-35 -4 -40 -71 -85 -40 -25 -97 -70 -128 -98 l-56 -52 -98 -6 c-201 -13 -414
-97 -447 -177 -33 -79 61 -194 263 -323 24 -15 27 -24 27 -70 0 -163 90 -311
237 -390 l62 -33 -65 -58 c-84 -75 -95 -98 -65 -130 12 -13 50 -32 84 -42 77
-22 283 -24 522 -3 250 21 579 17 753 -9 78 -12 145 -22 148 -22 3 0 3 -21 0
-47 -9 -66 15 -107 90 -159 153 -104 514 -167 771 -135 282 35 491 134 653
308 273 296 293 641 51 896 -38 39 -81 97 -96 127 -35 70 -150 182 -241 235
-74 44 -188 94 -269 119 -241 73 -644 86 -925 30 -97 -20 -210 -53 -210 -62 0
-4 7 -29 15 -56 35 -115 11 -326 -51 -448 -71 -140 -222 -311 -351 -398 -125
-84 -285 -153 -380 -164 -42 -5 -38 -3 30 18 284 87 542 310 662 571 15 33 36
103 47 155 17 81 18 106 9 174 -14 102 -63 205 -128 269 -49 49 -153 106 -232
129 -42 12 -48 19 -99 108 -82 143 -139 219 -190 251 -51 32 -74 35 -114 15z
m412 -800 c-10 -46 -53 -101 -95 -120 -50 -24 -53 -19 -8 13 42 30 70 66 91
114 16 37 21 34 12 -7z m94 -101 c-15 -20 -29 -33 -32 -30 -5 5 46 65 55 65 2
0 -8 -16 -23 -35z m109 -152 c-7 -2 -19 -2 -25 0 -7 3 -2 5 12 5 14 0 19 -2
13 -5z m-325 -165 c7 -7 12 -26 12 -43 0 -37 -16 -55 -48 -55 -39 0 -62 18
-62 50 0 47 67 79 98 48z m-412 -73 c-27 -41 -83 -77 -128 -81 l-43 -4 45 17
c24 10 65 38 90 63 46 46 65 49 36 5z m511 20 c-15 -14 -36 -25 -45 -25 -9 1
-3 7 14 14 18 8 35 19 38 25 4 6 10 11 14 11 4 0 -6 -12 -21 -25z m1117 -4
c17 -3 -26 -6 -95 -6 -180 0 -295 -34 -382 -114 -91 -84 -119 -223 -65 -326
88 -170 355 -285 662 -285 428 0 764 190 866 490 13 36 26 103 31 150 l8 85
-4 -95 c-4 -146 -60 -270 -171 -384 -145 -149 -349 -234 -616 -258 -281 -26
-555 44 -709 181 -81 72 -104 125 -104 236 0 74 4 98 23 133 48 91 142 155
269 186 59 15 234 19 287 7z m-1178 -66 c-11 -8 -27 -15 -35 -15 -10 0 -7 6 9
14 33 19 50 19 26 1z m-91 -65 c-18 -20 -79 -28 -89 -12 -2 4 10 6 29 4 23 -3
38 2 52 15 24 26 32 19 8 -7z m-285 -103 c0 -2 -10 -12 -22 -23 l-23 -19 19
23 c18 21 26 27 26 19z"/>
</g>
</svg>
