<?xml version="1.0" encoding="UTF-8"?> <svg xmlns="http://www.w3.org/2000/svg" xmlns:xlink="http://www.w3.org/1999/xlink" width="40px" height="40px" viewBox="0 0 40 40" version="1.1"><g id="surface1"><path style=" stroke:none;fill-rule:nonzero;fill:rgb(81.960784%,81.960784%,81.960784%);fill-opacity:1;" d="M 20 8.75 C 16.546875 8.75 13.75 11.546875 13.75 15 C 13.75 18.453125 16.546875 21.25 20 21.25 C 23.453125 21.25 26.25 18.453125 26.25 15 C 26.25 11.546875 23.453125 8.75 20 8.75 Z M 20 18.75 C 17.929688 18.75 16.25 17.070312 16.25 15 C 16.25 12.929688 17.929688 11.25 20 11.25 C 22.070312 11.25 23.75 12.929688 23.75 15 C 23.75 17.070312 22.070312 18.75 20 18.75 Z M 20 0 C 11.714844 0 5 6.714844 5 15 C 5 21.269531 17.507812 40.011719 20 40 C 22.453125 40.011719 35 21.1875 35 15 C 35 6.714844 28.285156 0 20 0 Z M 20 36.25 C 17.921875 36.261719 7.5 20.226562 7.5 15 C 7.5 8.097656 13.097656 2.5 20 2.5 C 26.902344 2.5 32.5 8.097656 32.5 15 C 32.5 20.15625 22.046875 36.261719 20 36.25 Z M 20 36.25 "></path></g></svg> 