<?xml version="1.0" encoding="UTF-8"?> <svg xmlns="http://www.w3.org/2000/svg" width="33" height="32" viewBox="0 0 33 32" fill="none"><path d="M14.04 18.3332C14.6371 18.5249 15.2547 18.6457 15.88 18.6932V20.5465H17.7867V18.6532C18.2511 18.5988 18.7024 18.4634 19.12 18.2532C19.435 18.079 19.7188 17.8537 19.96 17.5865C20.1712 17.3413 20.33 17.0554 20.4267 16.7465C20.5166 16.4482 20.5615 16.1381 20.56 15.8265C20.5711 15.4345 20.4956 15.0448 20.3389 14.6853C20.1822 14.3257 19.9481 14.0052 19.6533 13.7465C19.3536 13.4776 19.0168 13.2531 18.6533 13.0798C18.2225 12.866 17.7769 12.6833 17.32 12.5332L16.56 12.2398C16.3734 12.1699 16.1946 12.0805 16.0267 11.9732C15.895 11.8948 15.785 11.7848 15.7067 11.6532C15.6372 11.5221 15.605 11.3746 15.6133 11.2265C15.61 11.1018 15.6375 10.9781 15.6933 10.8665C15.7491 10.7549 15.8315 10.6587 15.9333 10.5865C16.2517 10.388 16.6263 10.299 17 10.3332C17.4975 10.3217 17.9945 10.371 18.48 10.4798C18.8854 10.5705 19.2824 10.6954 19.6667 10.8532L20.08 8.99984C19.7826 8.8682 19.4749 8.76117 19.16 8.67984C18.721 8.57537 18.2756 8.49965 17.8267 8.45318V6.83984H15.88V8.55984C15.4709 8.62568 15.0748 8.75621 14.7067 8.94651C14.398 9.11296 14.1224 9.33437 13.8933 9.59984C13.6901 9.85831 13.5364 10.1521 13.44 10.4665C13.3438 10.782 13.2944 11.11 13.2933 11.4398C13.2816 11.8357 13.3639 12.2286 13.5333 12.5865C13.6895 12.8904 13.9075 13.1584 14.1733 13.3732C14.4385 13.6008 14.7348 13.7894 15.0533 13.9332C15.3733 14.0843 15.7067 14.2176 16.0533 14.3332L17.0667 14.6265C17.2954 14.7241 17.518 14.8354 17.7333 14.9598C17.8924 15.0592 18.0287 15.1909 18.1333 15.3465C18.231 15.4923 18.2822 15.6643 18.28 15.8398C18.2876 15.9808 18.2584 16.1213 18.1953 16.2475C18.1322 16.3737 18.0373 16.4814 17.92 16.5598C17.5142 16.7856 17.048 16.8788 16.5867 16.8265C16.0496 16.828 15.5152 16.7516 15 16.5998C14.5427 16.4781 14.0967 16.3175 13.6667 16.1198L13 17.9065C13.2267 18.0132 13.5733 18.1598 14.04 18.3332Z" fill="white"></path><path d="M16.12 30.6667C16.3631 30.881 16.6759 30.9995 17 31C17.3241 30.9995 17.6369 30.881 17.88 30.6667C17.9003 30.6487 17.9412 30.6146 18.0008 30.5649C19.269 29.5065 29 21.3858 29 12C29 8.8174 27.7357 5.76515 25.4853 3.51472C23.2348 1.26428 20.1826 0 17 0C13.8174 0 10.7652 1.26428 8.51472 3.51472C6.26428 5.76515 5 8.8174 5 12C5 21.3858 14.731 29.5065 15.9992 30.5649C16.0588 30.6146 16.0997 30.6487 16.12 30.6667ZM10.4003 5.40034C12.1507 3.65 14.5246 2.66667 17 2.66667C19.4754 2.66667 21.8493 3.65 23.5997 5.40034C25.35 7.15068 26.3333 9.52465 26.3333 12C26.3333 18.805 20.0259 24.9105 17.3234 27.5265C17.2089 27.6373 17.1008 27.7419 17 27.84C16.8992 27.7419 16.7911 27.6373 16.6766 27.5265C13.9741 24.9105 7.66667 18.805 7.66667 12C7.66667 9.52465 8.65 7.15068 10.4003 5.40034Z" fill="white"></path></svg> 