<?xml version="1.0" encoding="UTF-8"?> <svg xmlns="http://www.w3.org/2000/svg" width="227" height="65" viewBox="0 0 227 65" fill="none"><g clip-path="url(#clip0)"><path d="M0 32.5C0 14.8269 14.3269 0.5 32 0.5C49.6731 0.5 64 14.8269 64 32.5C64 50.1731 49.6731 64.5 32 64.5C14.3269 64.5 0 50.1731 0 32.5Z" fill="#CD9452"></path><path d="M0 32.5C0 14.8269 14.3269 0.5 32 0.5C49.6731 0.5 64 14.8269 64 32.5C64 50.1731 49.6731 64.5 32 64.5C14.3269 64.5 0 50.1731 0 32.5Z" fill="white" fill-opacity="0.7"></path><path d="M0.293222 36.8508C0.212611 36.2578 0.148244 35.6596 0.100586 35.0567C1.25645 35.6358 2.4047 36.2072 3.55294 36.7785L3.55481 36.7795C5.10244 37.5496 6.65008 38.3197 8.21637 39.1086C8.27119 39.1454 8.32713 39.1811 8.38282 39.2166C8.78174 39.4711 9.16773 39.7173 9.03683 40.3107C8.96224 40.6864 8.73848 40.8366 8.44013 40.7615C8.21886 40.7058 8.03861 40.6087 7.83853 40.501C7.76889 40.4635 7.69669 40.4246 7.61968 40.3858C5.1497 39.3041 2.67972 38.1444 0.293222 36.8508Z" fill="#101010" fill-opacity="0.05"></path><path d="M1.49963 42.2099C1.31985 41.6447 1.15535 41.0726 1.00661 40.4943C4.14678 42.0199 7.27626 43.5564 10.3794 45.1193C10.4478 45.1489 10.524 45.1784 10.6036 45.2093C11.1314 45.4141 11.8125 45.6785 11.4236 46.3966C11.1914 46.8059 10.6882 46.4871 10.2655 46.2194C10.1451 46.1431 10.0311 46.0709 9.93188 46.0209C8.11098 45.1521 6.27469 44.3375 4.44282 43.5249L4.44172 43.5244L4.44073 43.5239C3.45818 43.0881 2.47661 42.6527 1.49963 42.2099Z" fill="#101010" fill-opacity="0.05"></path><path d="M4.91991 49.5569C4.42061 48.7659 3.95501 47.9514 3.52513 47.1156C5.85268 48.332 8.15201 49.597 10.3794 50.9798C10.5052 51.0502 10.6363 51.1153 10.7677 51.1806C11.3373 51.4637 11.9131 51.7499 12.0949 52.4825C11.3629 53.0497 10.8009 52.6748 10.2805 52.3277C10.1117 52.215 9.94717 52.1053 9.7827 52.0317C8.15657 51.2126 6.53691 50.3871 4.91991 49.5569Z" fill="#101010" fill-opacity="0.05"></path><path d="M53.3181 56.3654C53.0082 56.6423 52.693 56.9134 52.3725 57.1783C49.5309 51.726 46.7679 46.1609 44.2419 40.5361C44.0927 40.2356 44.0181 40.0102 43.9435 39.7096C43.9435 39.6345 44.0181 39.4091 44.0927 39.334C44.2419 39.1837 44.4657 39.1837 44.6148 39.4091C44.764 39.6595 44.9215 39.91 45.0789 40.1604C45.3938 40.6613 45.7088 41.1622 45.9574 41.6631C47.7475 45.1193 49.463 48.5003 51.1785 51.9565C51.917 53.4445 52.6231 54.8997 53.3181 56.3654Z" fill="#101010" fill-opacity="0.05"></path><path d="M56.5005 53.0857C56.1486 53.504 55.7863 53.9131 55.4139 54.3127C54.032 51.8043 52.7319 49.2658 51.5514 46.6971L47.0762 37.2302C46.8524 36.7794 46.6287 36.3286 46.4795 35.8026C46.4049 35.6524 46.5541 35.3518 46.7033 35.2767C46.8524 35.1264 47.1508 35.2767 47.2254 35.5021C47.3895 35.7707 47.5592 36.0393 47.7299 36.3095C48.18 37.0217 48.6369 37.7449 49.0155 38.5075C51.5195 43.3377 54.0236 48.2062 56.5005 53.0857Z" fill="#101010" fill-opacity="0.05"></path><path d="M59.0897 49.5415C58.7725 50.0447 58.4417 50.5384 58.0977 51.0221C56.6991 48.4225 55.4242 45.7638 54.1455 43.0973C53.9523 42.6945 53.759 42.2915 53.5653 41.8885C52.4713 39.5844 51.4437 37.2135 50.416 34.8425C49.9022 33.6571 49.3884 32.4717 48.8663 31.2946C48.7917 31.1068 48.6985 30.9001 48.6052 30.6935C48.512 30.4869 48.4188 30.2803 48.3442 30.0924C48.3442 29.9422 48.4933 29.7168 48.6425 29.5665C48.7171 29.4914 48.8663 29.5665 49.0155 29.6416C49.5967 30.0971 49.8984 30.7215 50.211 31.3686C50.2593 31.4686 50.3081 31.5697 50.358 31.6703C51.4393 33.8863 52.5206 36.1211 53.6019 38.3559L53.6026 38.3572C54.6841 40.5925 55.7656 42.8277 56.8471 45.0442C57.5754 46.5433 58.3305 48.0424 59.0897 49.5415Z" fill="#101010" fill-opacity="0.05"></path><path d="M61.0366 45.967C60.8187 46.4362 60.5897 46.8992 60.35 47.3557C57.3523 42.5481 54.6383 37.5975 51.9244 32.647C50.8806 30.7694 49.8368 28.967 48.793 27.1646L48.7921 27.1628C48.5683 26.7871 48.7171 26.5611 48.9409 26.3357C49.0527 26.3733 49.146 26.4109 49.2392 26.4484C49.3324 26.486 49.4257 26.5236 49.5376 26.5611C50.6564 27.3876 51.3277 28.5146 51.9989 29.6416C54.7586 34.4501 57.5184 39.2589 60.0543 44.1426C60.3617 44.7617 60.6943 45.3681 61.0366 45.967Z" fill="#101010" fill-opacity="0.05"></path><path d="M63.1892 39.6889C63.0455 40.315 62.8834 40.9341 62.7035 41.5456C62.5415 41.3885 62.3794 41.2253 62.2174 41.0621C58.2643 36.3286 54.9824 31.2195 51.9244 25.8849C51.4768 25.1336 51.0293 24.3822 50.8801 23.4806C50.8055 23.2552 50.8055 22.8795 51.2531 22.8795C51.626 22.8795 51.7752 23.1049 51.9244 23.3303C52.7448 24.3822 53.4907 25.4341 54.2366 26.486C55.8022 28.8142 57.3866 31.1424 58.9709 33.4706L58.9728 33.4735L58.9767 33.4793C60.3853 35.5491 61.7938 37.619 63.1892 39.6889Z" fill="#101010" fill-opacity="0.05"></path><path d="M63.9986 32.205C63.9995 32.3032 63.9999 32.4016 63.9999 32.5C63.9999 33.0026 63.9883 33.5026 63.9654 33.9995C63.6314 33.7982 63.2973 33.5978 62.9632 33.3983C62.1428 32.8724 61.3969 32.2713 60.8002 31.5951C60.4273 31.3697 60.4273 30.9941 60.9494 30.6935C61.0613 30.7311 61.1918 30.7686 61.3223 30.8062C61.4528 30.8438 61.5834 30.8814 61.6953 30.9189C62.4685 31.3383 63.2361 31.7673 63.9986 32.205Z" fill="#101010" fill-opacity="0.05"></path><path d="M63.7379 28.386C63.8138 28.977 63.8735 29.5731 63.9167 30.1738C62.46 29.3954 61.0006 28.6169 59.5322 27.8384C59.4949 27.8384 59.4576 27.8196 59.4203 27.8008C59.3831 27.7821 59.3458 27.7633 59.3085 27.7633C58.9355 27.6881 58.5626 27.5379 58.7118 27.0871C58.861 26.7114 59.2339 26.7114 59.6068 26.7114C60.2428 26.5833 60.8246 26.8922 61.3522 27.1723C61.4433 27.2207 61.5328 27.2682 61.6207 27.3125C62.3252 27.6728 63.0314 28.0299 63.7379 28.386Z" fill="#101010" fill-opacity="0.05"></path><path d="M59.427 16.0057C60.3598 17.5534 61.1652 19.1864 61.8289 20.8904C61.8225 20.9524 61.8148 21.0144 61.8071 21.0763C61.7885 21.2265 61.7698 21.3769 61.7698 21.5271V22.4287C61.7698 22.7293 61.7699 23.0298 61.3223 23.0298C61.0986 23.0298 61.024 22.8044 60.9494 22.579C60.5654 21.8537 60.4594 21.0662 60.3531 20.2766L60.353 20.2755C60.2942 19.8387 60.2352 19.4005 60.1289 18.9726C59.8516 17.9948 59.6226 17.0008 59.427 16.0057Z" fill="#101010" fill-opacity="0.05"></path><path d="M54.3007 9.55053C55.0663 10.2946 55.7948 11.0767 56.4832 11.8937C56.7728 13.4269 57.0648 14.96 57.3692 16.4931C57.4811 17.0566 57.6116 17.6201 57.7421 18.1836C57.8727 18.7472 58.0032 19.3107 58.1151 19.8742C58.1897 20.4001 58.1897 20.8509 58.1897 21.3769C58.1897 21.6774 58.0405 21.9779 57.6676 22.0531C57.3305 22.121 57.2372 21.8207 57.1672 21.5959L57.1568 21.5624L57.1454 21.5271C56.6233 19.5736 56.1012 17.6201 55.6537 15.6666C55.1911 13.6279 54.7285 11.5892 54.3007 9.55053Z" fill="#101010" fill-opacity="0.05"></path><path d="M50.112 6.11545C50.7108 6.52729 51.2949 6.95899 51.8633 7.4096C52.6626 10.7074 53.5282 14.0233 54.5349 17.2445C54.5489 17.3011 54.5683 17.3576 54.5869 17.4122C54.6673 17.6475 54.735 17.8455 54.3111 17.8455C54.162 17.8455 53.8636 17.6953 53.789 17.545C53.6399 17.3196 53.5653 17.0191 53.4907 16.7186C52.2973 13.3375 51.2531 9.95644 50.2089 6.57539C50.1703 6.42011 50.1384 6.26705 50.112 6.11545Z" fill="#101010" fill-opacity="0.05"></path><path d="M46.5817 4.0078C47.1221 4.28494 47.6537 4.57702 48.1757 4.88347C48.8458 7.09384 49.5732 9.21003 50.358 11.384C50.2958 11.4467 50.2465 11.5225 50.1994 11.595C50.1336 11.6963 50.072 11.791 49.9851 11.8348C49.7041 12.0471 49.6216 11.7929 49.5506 11.5743L49.5376 11.5343C49.3511 11.121 49.1646 10.689 48.9782 10.257C48.7917 9.82495 48.6052 9.39293 48.4188 8.97969C48.1679 8.34804 47.9303 7.7164 47.6948 7.09033C47.37 6.22713 47.0491 5.37412 46.7033 4.54677C46.6174 4.34499 46.5755 4.16534 46.5817 4.0078Z" fill="#101010" fill-opacity="0.05"></path><path d="M7.5235 11.8857C9.1004 10.0153 10.8878 8.32813 12.8491 6.86077C12.3193 7.65231 11.7894 8.44881 11.258 9.24752C9.81653 11.4141 8.36416 13.5971 6.87382 15.7418C4.98925 18.4998 3.08772 21.2408 1.15309 23.9566C1.90124 21.2493 2.99624 18.6861 4.38725 16.3177C5.42473 14.8358 6.47015 13.3593 7.5235 11.8857Z" fill="#101010" fill-opacity="0.05"></path><path d="M14.8546 9.50563H14.4071C14.3705 9.49335 14.3339 9.48307 14.2986 9.47316C14.1181 9.42246 13.9718 9.38135 14.0342 9.12996C14.0342 8.97969 14.1087 8.82942 14.2579 8.75429C14.4965 8.65417 14.7403 8.54871 14.9866 8.44218C15.6645 8.149 16.3611 7.84771 17.0176 7.62727C18.4027 7.15343 19.7603 6.64269 21.1128 6.13383C23.6207 5.19036 26.1113 4.25335 28.7278 3.57002C28.8372 3.54247 28.9366 3.5048 29.0333 3.46816C29.2003 3.40488 29.3593 3.34462 29.5482 3.34462C29.8466 3.34462 30.1449 3.49489 30.1449 3.79542C30.1449 4.02081 30.1449 4.24624 29.9958 4.3965C29.6974 4.6219 29.3991 4.77217 29.0261 4.8473C27.6615 5.32131 26.3118 5.81774 24.9651 6.31302C22.0427 7.38787 19.1351 8.45729 16.1226 9.28023C15.7497 9.4305 15.3021 9.50563 14.8546 9.50563Z" fill="#101010" fill-opacity="0.05"></path><path d="M31.04 37.8313C30.9813 37.063 31.2457 36.3413 31.5063 35.6294C31.5771 35.4362 31.6476 35.2438 31.7113 35.0513C34.6202 26.0352 37.6782 17.0942 40.9601 8.22835C41.0005 8.12659 41.0354 8.02483 41.0693 7.92605C41.1606 7.66018 41.2444 7.41595 41.4076 7.2516C41.4474 7.19146 41.4713 7.10456 41.4962 7.01375C41.5647 6.76426 41.6414 6.48527 42.0789 6.65053C42.4518 6.8008 42.601 7.17647 42.4518 7.55214L41.7805 10.0316C38.8716 19.198 35.5898 28.2141 32.308 37.2302C32.2756 37.3117 32.2432 37.3968 32.2101 37.4838C32.0905 37.798 31.9611 38.1382 31.7859 38.4324C31.7443 38.5161 31.6332 38.5765 31.5171 38.6396C31.425 38.6897 31.3298 38.7415 31.2637 38.808C31.2438 38.7678 31.2238 38.7329 31.2052 38.7005C31.1546 38.6121 31.1146 38.5424 31.1146 38.4324C31.04 38.2821 31.04 38.0567 31.04 37.8313Z" fill="#101010" fill-opacity="0.05"></path><path d="M34.2008 42.6585C34.2545 42.8473 34.2994 43.005 34.6202 42.9404C35.0454 42.869 35.2013 42.3906 35.2797 42.1497L35.2915 42.1139C36.4103 39.4091 37.5291 36.7043 38.5733 33.9994C41.333 27.0119 43.9435 20.0244 46.1065 12.8115C46.3303 12.2105 46.5541 11.5343 46.7033 10.9332C46.8524 10.5575 46.6287 10.4072 46.3303 10.257C46.0074 10.0618 45.8523 10.3172 45.7196 10.5356C45.6991 10.5694 45.679 10.6024 45.659 10.6326C45.6187 10.7139 45.6002 10.8172 45.5799 10.9306C45.5627 11.0268 45.5441 11.1303 45.5099 11.2337C45.1543 12.241 44.8054 13.2482 44.4572 14.2535L44.4552 14.2594L44.4548 14.2605C43.635 16.6273 42.819 18.983 41.9297 21.3017C40.6993 24.6068 39.4503 27.9119 38.2013 31.217L38.2003 31.2195L38.1996 31.2215C36.9506 34.5266 35.7014 37.8321 34.471 41.1372C34.4355 41.2444 34.3916 41.3515 34.3473 41.4597C34.2053 41.8066 34.0589 42.1638 34.1726 42.5647C34.1831 42.5963 34.1921 42.6278 34.2008 42.6585Z" fill="#101010" fill-opacity="0.05"></path><path d="M7.71085 19.9493C7.82688 19.9994 7.9429 20.0495 7.99262 20.0996C8.45154 20.1574 8.86633 20.0374 9.30488 19.9105C9.4364 19.8725 9.57049 19.8337 9.70812 19.799C16.1972 17.3196 22.6862 14.765 28.9515 11.6845C30.1076 11.121 31.2823 10.5388 32.457 9.95651C33.6317 9.37423 34.8066 8.79185 35.9627 8.22835C36.2611 8.07808 36.4103 7.85268 36.2611 7.55214C36.1865 7.40187 35.8881 7.32674 35.6644 7.32674C35.5152 7.3643 35.3847 7.42066 35.2542 7.47701C35.1236 7.53336 34.9931 7.58971 34.8439 7.62727C34.1354 7.92781 33.4268 8.20957 32.7182 8.49132C32.0096 8.77307 31.301 9.05483 30.5925 9.35536C28.2171 10.3356 25.8746 11.3821 23.5356 12.4272C19.7787 14.1057 16.0308 15.7802 12.1695 17.1693C10.6777 17.6953 9.186 18.3715 7.91802 19.3482C7.73986 19.4081 7.65627 19.6108 7.59194 19.7668C7.57549 19.8067 7.56028 19.8436 7.54509 19.8742C7.59479 19.8992 7.65286 19.9243 7.71085 19.9493Z" fill="#101010" fill-opacity="0.05"></path><path d="M39.5429 42.9404C39.0208 42.715 38.8716 42.4145 38.9462 42.0388C39.2446 41.1372 39.5429 40.2356 39.9158 39.334C42.228 33.3984 44.5402 27.5379 46.927 21.6023C47.4491 20.4001 48.0458 19.198 48.6425 18.0709C48.7917 17.7704 49.09 17.3947 49.463 17.545C49.8587 17.7158 49.7402 17.973 49.6272 18.2184C49.5911 18.2967 49.5556 18.3739 49.5376 18.4466C48.2696 23.4806 46.2557 28.2892 44.2419 33.0227C43.3965 35.0263 42.4849 37.0299 41.5733 39.0336C41.1175 40.0353 40.6617 41.0371 40.2142 42.0388C40.065 42.4896 39.9158 42.7901 39.5429 42.9404Z" fill="#101010" fill-opacity="0.05"></path><path d="M10.5286 23.2552C10.3794 22.8044 10.081 22.4287 9.63352 22.3536C9.33518 22.3536 9.186 22.5039 9.03683 22.8044C8.96224 23.2552 9.03684 23.6309 9.18601 24.0817C11.1999 30.0173 13.6612 35.8778 16.3464 41.588C16.5701 42.0388 16.7939 42.4896 17.2414 42.7901C17.2813 42.8035 17.3212 42.8193 17.3607 42.835C17.5426 42.9069 17.7155 42.9753 17.8381 42.7901C17.9873 42.6399 18.1364 42.4145 18.1364 42.2642C18.1364 42.1237 18.0784 42.0123 18.0167 41.8938C17.9794 41.8222 17.9408 41.748 17.9127 41.6631C16.943 39.1837 15.9734 36.723 15.0038 34.2624L15.003 34.2605C14.0337 31.8005 13.0643 29.3405 12.0949 26.8617C11.7965 26.0602 11.4319 25.2588 11.0673 24.4574C10.8849 24.0566 10.7026 23.6559 10.5286 23.2552Z" fill="#101010" fill-opacity="0.05"></path><path d="M19.3671 18.409C19.4603 18.5217 19.5536 18.6345 19.6282 18.7472C20.5978 20.5504 21.5674 22.3536 22.4625 24.1568C24.8493 29.0406 26.9377 34.0746 29.0261 39.1086C29.0634 39.1837 29.1007 39.24 29.138 39.2964C29.1753 39.3527 29.2126 39.4091 29.2499 39.4842C29.3245 39.7848 29.3245 40.0853 29.0261 40.3107C28.7278 40.461 28.4295 40.3107 28.2803 40.0853C27.9819 39.6345 27.7582 39.1837 27.5344 38.7329C26.7512 37.0048 25.9494 35.2955 25.1476 33.5862C24.3458 31.8769 23.544 30.1676 22.7608 28.4395C22.1268 27.0871 21.5115 25.7346 20.8962 24.3822C20.2809 23.03 19.6654 21.6773 19.0315 20.325C18.9968 20.2435 18.9604 20.162 18.9238 20.0803C18.7243 19.6344 18.5209 19.1799 18.584 18.672C18.584 18.4466 18.7331 18.1461 19.1061 18.0709C19.1806 18.1835 19.274 18.2965 19.3671 18.409Z" fill="#101010" fill-opacity="0.05"></path><path d="M14.78 21.5271C14.5563 21.1515 14.3325 20.7758 13.9596 20.7006C13.6388 20.636 13.5939 20.7937 13.5402 20.9825C13.5315 21.0132 13.5225 21.0448 13.512 21.0763C13.3208 21.8469 13.6744 22.4529 14.0141 23.0349C14.0718 23.1338 14.1292 23.2321 14.1833 23.3303C17.316 29.4162 20.1503 35.6524 22.6863 42.0388C22.7129 42.1328 22.7348 42.2437 22.7579 42.3606C22.864 42.8976 22.9955 43.5629 23.7305 43.3161C24.236 43.0978 23.9024 42.316 23.6776 41.7892L23.6559 41.7383C23.0195 40.1494 22.4035 38.5606 21.7891 36.9756C20.7475 34.2885 19.7098 31.6118 18.584 28.9654C17.4652 26.4109 16.2718 23.8563 14.78 21.5271Z" fill="#101010" fill-opacity="0.05"></path><path d="M12.6916 14.3894C12.3187 14.3894 12.0203 14.3894 11.8711 14.0137C11.722 13.638 12.0949 13.4878 12.3187 13.4126C12.7981 13.215 13.2776 13.011 13.759 12.8062C14.9249 12.3101 16.1018 11.8094 17.316 11.384C21.4083 9.89038 25.5478 8.44429 29.6594 7.00792L29.6606 7.0075C30.7194 6.63763 31.7763 6.26841 32.8301 5.89918C32.9416 5.85424 33.0465 5.80256 33.1487 5.75221C33.3882 5.63424 33.6129 5.52351 33.8743 5.52351C34.0015 5.52351 34.1374 5.44484 34.2701 5.368C34.5265 5.21956 34.7711 5.07795 34.9185 5.52351C35.0584 5.94625 34.608 6.17078 34.1823 6.38297L34.098 6.42513C33.6186 6.62271 33.1391 6.82671 32.6578 7.0315C31.4919 7.52757 30.315 8.02832 29.1007 8.45375C26.6767 9.35536 24.234 10.257 21.7912 11.1586C19.3485 12.0602 16.9058 12.9618 14.4817 13.8634C14.3192 13.9248 14.1566 14.003 13.9941 14.0811C13.5602 14.2898 13.1256 14.4987 12.6916 14.3894Z" fill="#101010" fill-opacity="0.05"></path><path d="M34.5456 11.3089C31.3383 17.545 29.6974 24.3071 28.2057 31.0692C27.9977 31.4881 28.2407 31.6475 28.4557 31.7885C28.472 31.7993 28.4882 31.8099 28.504 31.8205C28.6895 31.8828 28.7725 31.687 28.8379 31.5326C28.8514 31.5007 28.8642 31.4706 28.877 31.4449C29.2125 30.506 29.5294 29.5483 29.8463 28.5906L29.8467 28.5894C30.1636 27.6317 30.4807 26.6735 30.8162 25.7346L35.5152 12.4359C35.5557 12.293 35.6072 12.1557 35.6578 12.021C35.7934 11.6595 35.9222 11.3163 35.8135 10.9332C35.8135 10.7829 35.739 10.5575 35.6644 10.5575C35.4406 10.4824 35.2169 10.4824 35.0677 10.6326C34.8925 10.7503 34.763 10.9601 34.6434 11.1538C34.6103 11.2075 34.5779 11.26 34.5456 11.3089Z" fill="#101010" fill-opacity="0.05"></path><path d="M38.7225 45.3447C38.6525 45.6973 38.3854 45.7851 38.1679 45.8567L38.1258 45.8707C36.5594 46.622 34.9931 47.2982 33.3522 47.9744C28.683 49.923 24.1331 52.0518 19.5425 54.1997L19.5409 54.2005L19.5393 54.2012C18.9977 54.4546 18.4556 54.7083 17.9127 54.9619C17.7875 55.016 17.6494 55.0959 17.5077 55.178C17.0585 55.4382 16.5732 55.7194 16.3464 55.2624C16.0898 54.7455 16.7157 54.4509 17.2756 54.1874C17.3667 54.1445 17.4562 54.1024 17.5397 54.0603C23.8051 50.6041 30.2941 47.5236 37.007 45.0442L37.0582 45.0269L37.1288 45.0028C37.5238 44.8681 37.8686 44.7506 38.2749 44.8188C38.3029 44.8328 38.3302 44.8463 38.3566 44.8593C38.6126 44.9851 38.7901 45.0723 38.7225 45.3447Z" fill="#101010" fill-opacity="0.05"></path><path d="M40.1604 48.4671C40.179 48.4252 40.1966 48.3856 40.2142 48.3501C40.065 47.9744 39.7667 47.9744 39.5429 48.0495C38.2691 48.6328 36.9503 49.1708 35.6564 49.6986C35.2835 49.8508 34.9127 50.002 34.5456 50.1533C30.2195 51.8814 25.9681 53.7598 21.8658 55.9387C21.0453 56.3895 20.2249 56.8403 19.4044 57.3662C19.2552 57.5165 18.9569 57.817 19.0315 57.8921C19.1807 58.1927 19.479 58.1927 19.7774 58.1175C20.2995 57.9673 20.747 57.7419 21.1945 57.5165C22.91 56.69 24.7001 55.8635 26.4902 55.037C28.5409 54.1356 30.5916 53.2154 32.6424 52.2952L32.6436 52.2946C34.6948 51.3742 36.7459 50.4538 38.797 49.5522L39.9158 48.876C40.0298 48.7612 40.1002 48.6026 40.1604 48.4671Z" fill="#101010" fill-opacity="0.05"></path><path d="M5.53124 24.3071C5.53124 23.9314 5.53125 23.5558 5.75501 23.4806C6.05336 23.4055 6.27712 23.706 6.35171 24.0066C6.70798 24.8624 7.08439 25.7182 7.46244 26.5777C8.11329 28.0575 8.769 29.5483 9.33518 31.0692C10.8269 35.1264 12.3186 39.1086 13.9596 43.0155C13.9969 43.1282 14.0528 43.2222 14.1087 43.3161C14.1647 43.41 14.2206 43.5039 14.2579 43.6166C14.3325 43.9172 14.3325 44.2177 13.9596 44.2928C13.7358 44.368 13.5866 44.2177 13.4375 43.9923C13.251 43.6167 13.046 43.2223 12.8409 42.828C12.6358 42.4335 12.4305 42.0388 12.2441 41.6631C10.0065 36.554 7.84344 31.3697 5.90418 26.1103C5.87549 25.8791 5.79163 25.648 5.70778 25.4168C5.57361 25.0469 5.43944 24.677 5.53124 24.3071Z" fill="#101010" fill-opacity="0.05"></path><path d="M29.6228 45.3447C30.0704 45.1193 30.3687 44.8939 30.5179 44.6685C30.6671 44.2177 30.4433 44.0674 30.2195 43.9923C29.8132 43.9241 29.4684 44.0417 29.0734 44.1764L29.0153 44.1961L28.9515 44.2177C26.608 45.0271 24.3847 46.0182 22.1197 47.0278C21.8616 47.1428 21.603 47.2581 21.3437 47.3733C20.0101 47.9644 18.7146 48.6324 17.4301 49.2947L17.429 49.2953C16.9178 49.5589 16.4083 49.8216 15.8988 50.0782L15.8453 50.0994L15.8154 50.1111C15.4539 50.2527 15.0201 50.4225 15.2276 50.9798C15.4139 51.5431 15.7556 51.3765 16.0801 51.2183C16.1451 51.1865 16.2095 51.1551 16.2718 51.13L16.2728 51.1296C17.9133 50.5287 19.554 49.9277 21.1199 49.2517C22.5368 48.6132 23.9537 47.9559 25.3705 47.2986C26.7877 46.6412 28.2057 45.9834 29.6228 45.3447Z" fill="#101010" fill-opacity="0.05"></path><path d="M47.8221 57.9673C48.1204 58.1927 48.3442 57.9673 48.4933 57.6667C48.6425 57.2159 48.3442 56.9154 48.1204 56.7651C47.4491 55.3376 46.8524 53.9852 46.2557 52.5576C45.1369 49.8528 44.0181 47.2231 42.8247 44.5182C42.601 43.9923 42.3772 43.6166 42.0789 43.1658C42.0043 43.0155 41.7805 42.7901 41.5568 42.9404C41.2584 43.0907 41.0346 43.3161 41.1092 43.6166C41.1092 43.6917 41.1838 43.842 41.2584 43.9922C42.8247 48.5003 44.6894 52.783 46.927 56.9905C47.1508 57.3662 47.4491 57.6667 47.8221 57.9673Z" fill="#101010" fill-opacity="0.05"></path><path d="M26.0427 59.6202C26.0251 59.6025 26.0033 59.5848 25.9803 59.566C25.906 59.5054 25.8189 59.4345 25.8189 59.3197C25.7443 59.1694 25.7443 59.0192 25.8189 58.944C26.0426 58.7186 26.341 58.4181 26.6393 58.2678C28.2803 57.3662 29.9212 56.4646 31.6367 55.6381C33.2347 54.8806 34.8623 54.2126 36.5009 53.5401C37.4627 53.1453 38.4282 52.749 39.3937 52.3322C39.4708 52.2934 39.5429 52.2546 39.6125 52.2171C39.8126 52.1093 39.9929 52.0123 40.2142 51.9565C40.2939 51.9431 40.3807 51.9226 40.4709 51.9013C40.8867 51.8029 41.3729 51.6879 41.5568 52.1819C41.7059 52.7079 41.1838 52.9333 40.8109 53.0836C39.9904 53.4592 39.0954 53.8349 38.2003 54.2106C36.373 55.037 34.5269 55.8635 32.6809 56.69C30.8349 57.5165 28.9889 58.343 27.1615 59.1694C26.714 59.3948 26.4156 59.5451 26.0427 59.6202Z" fill="#101010" fill-opacity="0.05"></path><path d="M30.5179 14.0137C30.4433 13.7883 30.3687 13.5629 29.9212 13.638C29.6974 13.7883 29.4737 14.0137 29.1753 14.3894C27.8789 16.8877 27.0084 19.5578 26.1454 22.2048C25.8665 23.0605 25.5883 23.9137 25.2968 24.7579C25.1849 25.0397 25.1989 25.3214 25.2129 25.6032C25.2175 25.6971 25.2222 25.791 25.2222 25.8849C25.2222 26.1103 25.3714 26.486 25.446 26.486C25.7443 26.4109 26.0427 26.2606 26.1173 25.9601C26.9377 23.5558 27.9073 21.2266 28.877 18.8974C29.138 18.2963 29.3804 17.6953 29.6228 17.0942C29.8652 16.4931 30.1076 15.892 30.3687 15.291C30.5179 14.8402 30.5925 14.4645 30.5179 14.0137Z" fill="#101010" fill-opacity="0.05"></path><path d="M2.77152 25.9601C2.47317 26.0352 2.47317 26.4109 2.47317 26.7865C2.37337 27.1887 2.50727 27.6245 2.65151 28.0939C2.72286 28.3261 2.79674 28.5665 2.84611 28.8152C3.14445 29.9171 3.50909 31.0191 3.87373 32.121C4.05606 32.672 4.2384 33.223 4.41244 33.774C4.48702 33.9994 4.71078 34.3 5.08372 34.1497C5.45665 34.0746 5.53125 33.6989 5.45666 33.4735C5.37702 33.1526 5.29871 32.8317 5.22048 32.5111C4.71262 30.43 4.20843 28.364 3.36822 26.4109C3.29363 26.1103 3.14446 25.8849 2.77152 25.9601Z" fill="#101010" fill-opacity="0.05"></path><path d="M23.4601 19.9741C23.351 20.3765 23.244 20.7709 23.1338 21.1515V21.8277C23.1338 22.0531 23.2084 22.2785 23.5067 22.2785C23.7305 22.2785 23.8796 22.1282 23.9542 21.9028C24.6255 20.2498 25.2222 18.672 25.8189 17.0191C25.8624 16.8876 25.9123 16.7624 25.9611 16.64C26.0796 16.3427 26.1918 16.061 26.1918 15.7418C26.1918 15.6924 26.1939 15.641 26.1959 15.5889C26.2063 15.3239 26.2174 15.0409 25.9681 14.9153C25.5951 14.765 25.2222 15.0656 25.073 15.3661C24.3081 16.8479 23.8681 18.47 23.4601 19.9741Z" fill="#101010" fill-opacity="0.05"></path><path d="M27.975 16.425L23 13.5L13.6 27.35L38.9 44.025H53.5V42C53.5 38.134 50.366 35 46.5 35H44.5L40 21.5L37.6756 22.1386C36.2246 22.5372 34.688 22.496 33.2605 22.0201C31.3489 21.383 29.7688 20.0125 28.8677 18.2103L27.975 16.425Z" fill="#CD9452"></path><path d="M27.975 16.425L23 13.5L13.6 27.35L38.9 44.025H53.5V42C53.5 38.134 50.366 35 46.5 35H44.5L40 21.5L37.6756 22.1386C36.2246 22.5372 34.688 22.496 33.2605 22.0201C31.3489 21.383 29.7688 20.0125 28.8677 18.2103L27.975 16.425Z" fill="white" fill-opacity="0.9"></path><path d="M20.8959 22.1068L19 19.5L13.6 27.35L32 39.5C33.7272 35.7578 32.4728 31.3152 29.0434 29.029L25.9766 26.9844C24.0078 25.6719 22.2876 24.0204 20.8959 22.1068Z" fill="#CD9452"></path><path fill-rule="evenodd" clip-rule="evenodd" d="M45.4869 33.577H47.1121C51.4614 33.577 55 37.1155 55 41.4651V45.4327H14.4415V42.7248H34.7487L11.4287 27.387L22.7266 11.5668L28.5441 15.3731C28.5545 15.405 28.568 15.4504 28.5851 15.5078C28.824 16.3129 29.7619 19.473 32.754 20.8504C35.2555 21.9192 38.0156 20.8004 40.8803 19.1681L45.4869 33.577ZM25.8796 28.5078C22.565 26.5292 20.2426 24.4991 18.6209 21.9754L15.2676 26.6709L31.2338 37.172C31.4593 35.2158 31.0399 31.551 25.8796 28.5078ZM39.6764 42.7248H52.2923V41.4651C52.2923 38.6086 49.9685 36.2848 47.1122 36.2848H43.5099L42.8048 34.0797L39.6439 35.0973L38.8141 32.5196L41.9802 31.5005L41.0501 28.5911L37.593 29.7036L36.7636 27.1258L40.2254 26.0117L39.266 23.011C32.689 25.8905 27.954 21.9183 26.2459 17.1053L23.4195 15.2561L20.3728 19.5223C20.9096 20.721 22.5569 23.4046 27.2551 26.1754C31.3352 28.4435 35.153 33.1813 33.6757 38.7781L39.6764 42.7248Z" fill="#101010"></path><path d="M19.6687 36.1906H9.00001V38.8985H19.6687V36.1906Z" fill="#101010"></path></g><path d="M74 25.424V14.224H76.304V18.784H81.104V14.224H83.408V25.424H81.104V20.896H76.304V25.424H74Z" fill="#101010" fill-opacity="0.7"></path><path d="M90.1834 25.584C89.2767 25.584 88.482 25.3973 87.7994 25.024C87.1167 24.6507 86.5834 24.1387 86.1994 23.488C85.826 22.8373 85.6394 22.0907 85.6394 21.248C85.6394 20.3733 85.8207 19.6053 86.1834 18.944C86.5567 18.272 87.0634 17.744 87.7034 17.36C88.354 16.976 89.1007 16.784 89.9434 16.784C90.7007 16.784 91.378 16.9707 91.9754 17.344C92.5834 17.7067 93.0527 18.2027 93.3834 18.832C93.7247 19.4613 93.8847 20.1813 93.8634 20.992L93.8474 21.68H87.7674C87.8847 22.288 88.1727 22.768 88.6314 23.12C89.1007 23.472 89.6927 23.648 90.4074 23.648C90.7914 23.648 91.138 23.5893 91.4474 23.472C91.7674 23.3547 92.1087 23.1467 92.4714 22.848L93.5274 24.32C93.0687 24.7253 92.5407 25.04 91.9434 25.264C91.3567 25.4773 90.77 25.584 90.1834 25.584ZM89.9594 18.672C88.754 18.672 88.0287 19.216 87.7834 20.304H91.7834V20.24C91.7514 19.7813 91.5594 19.408 91.2074 19.12C90.866 18.8213 90.45 18.672 89.9594 18.672Z" fill="#101010" fill-opacity="0.7"></path><path d="M95.7024 25.424V16.976H97.8144L97.8464 18.176C98.145 17.7707 98.5184 17.4453 98.9664 17.2C99.4144 16.944 99.8837 16.816 100.374 16.816C100.982 16.816 101.489 16.9493 101.894 17.216C102.3 17.472 102.63 17.8827 102.886 18.448C103.196 17.9467 103.612 17.552 104.134 17.264C104.668 16.9653 105.217 16.816 105.782 16.816C107.713 16.816 108.678 17.9787 108.678 20.304V25.424H106.486V20.464C106.486 19.2907 106.006 18.704 105.046 18.704C104.534 18.704 104.108 18.864 103.766 19.184C103.436 19.504 103.27 19.904 103.27 20.384V25.424H101.078V20.432C101.078 19.8773 100.956 19.4507 100.71 19.152C100.465 18.8533 100.113 18.704 99.6544 18.704C99.153 18.704 98.7317 18.864 98.3904 19.184C98.0597 19.504 97.8944 19.8933 97.8944 20.352V25.424H95.7024Z" fill="#101010" fill-opacity="0.7"></path><path d="M111.003 28.944V16.976H113.115L113.147 18C113.425 17.6587 113.803 17.376 114.283 17.152C114.763 16.928 115.27 16.816 115.803 16.816C116.539 16.816 117.195 17.0027 117.771 17.376C118.347 17.7493 118.801 18.2667 119.131 18.928C119.462 19.5893 119.627 20.3413 119.627 21.184C119.627 22.0267 119.462 22.7787 119.131 23.44C118.801 24.1013 118.347 24.624 117.771 25.008C117.195 25.3813 116.539 25.568 115.803 25.568C115.302 25.568 114.817 25.4667 114.347 25.264C113.878 25.0507 113.499 24.784 113.211 24.464V28.944H111.003ZM115.323 23.68C115.974 23.68 116.502 23.4507 116.907 22.992C117.313 22.5227 117.515 21.92 117.515 21.184C117.515 20.4587 117.313 19.8667 116.907 19.408C116.502 18.9387 115.974 18.704 115.323 18.704C114.673 18.704 114.145 18.9333 113.739 19.392C113.334 19.8507 113.131 20.448 113.131 21.184C113.131 21.92 113.334 22.5227 113.739 22.992C114.145 23.4507 114.673 23.68 115.323 23.68Z" fill="#101010" fill-opacity="0.7"></path><path d="M130.479 25.584C129.444 25.584 128.553 25.3973 127.806 25.024C127.07 24.64 126.441 24.0907 125.918 23.376L127.375 21.728C127.897 22.4533 128.414 22.9493 128.926 23.216C129.438 23.472 130.004 23.6 130.622 23.6C131.124 23.6 131.545 23.4933 131.886 23.28C132.238 23.0667 132.414 22.7787 132.414 22.416C132.414 21.9787 132.191 21.6373 131.743 21.392C131.305 21.136 130.74 20.9387 130.047 20.8C128.841 20.544 127.945 20.1333 127.358 19.568C126.772 19.0027 126.479 18.2507 126.479 17.312C126.479 16.6613 126.665 16.0907 127.038 15.6C127.412 15.0987 127.902 14.7093 128.51 14.432C129.129 14.1547 129.812 14.016 130.558 14.016C131.55 14.016 132.372 14.1867 133.022 14.528C133.684 14.8587 134.206 15.3333 134.59 15.952L133.103 17.408C132.441 16.4693 131.599 16 130.575 16C130.041 16 129.609 16.112 129.278 16.336C128.958 16.5493 128.799 16.8427 128.799 17.216C128.799 17.6107 128.985 17.92 129.358 18.144C129.742 18.368 130.255 18.544 130.895 18.672C132.068 18.9173 132.996 19.312 133.678 19.856C134.372 20.3893 134.718 21.1093 134.718 22.016C134.718 22.7627 134.537 23.4027 134.174 23.936C133.822 24.4693 133.327 24.88 132.687 25.168C132.057 25.4453 131.321 25.584 130.479 25.584Z" fill="#101010" fill-opacity="0.7"></path><path d="M136.765 25.424V13.584H138.925V18.08C139.213 17.7067 139.591 17.4027 140.061 17.168C140.541 16.9227 141.042 16.8 141.565 16.8C143.506 16.8 144.477 17.952 144.477 20.256V25.424H142.301V20.416C142.301 19.2107 141.794 18.6293 140.781 18.672C140.258 18.672 139.821 18.832 139.469 19.152C139.127 19.472 138.957 19.8667 138.957 20.336V25.424H136.765Z" fill="#101010" fill-opacity="0.7"></path><path d="M150.735 25.584C149.871 25.584 149.103 25.3973 148.431 25.024C147.759 24.64 147.231 24.1173 146.847 23.456C146.463 22.7947 146.271 22.0373 146.271 21.184C146.271 20.3413 146.463 19.5893 146.847 18.928C147.231 18.2667 147.759 17.7493 148.431 17.376C149.103 16.992 149.871 16.8 150.735 16.8C151.578 16.8 152.335 16.992 153.007 17.376C153.679 17.7493 154.207 18.2667 154.591 18.928C154.975 19.5893 155.167 20.3413 155.167 21.184C155.167 22.0373 154.975 22.7947 154.591 23.456C154.207 24.1173 153.679 24.64 153.007 25.024C152.335 25.3973 151.578 25.584 150.735 25.584ZM150.735 23.68C151.162 23.68 151.546 23.5733 151.887 23.36C152.229 23.136 152.49 22.8373 152.671 22.464C152.863 22.0907 152.959 21.664 152.959 21.184C152.959 20.704 152.863 20.2773 152.671 19.904C152.49 19.5307 152.229 19.2373 151.887 19.024C151.546 18.8107 151.162 18.704 150.735 18.704C150.298 18.704 149.909 18.8107 149.567 19.024C149.226 19.2373 148.959 19.5307 148.767 19.904C148.575 20.2773 148.479 20.704 148.479 21.184C148.479 21.664 148.575 22.0907 148.767 22.464C148.959 22.8373 149.226 23.136 149.567 23.36C149.909 23.5733 150.298 23.68 150.735 23.68Z" fill="#101010" fill-opacity="0.7"></path><path d="M161.053 25.584C160.147 25.584 159.352 25.3973 158.669 25.024C157.987 24.6507 157.453 24.1387 157.069 23.488C156.696 22.8373 156.509 22.0907 156.509 21.248C156.509 20.3733 156.691 19.6053 157.053 18.944C157.427 18.272 157.933 17.744 158.573 17.36C159.224 16.976 159.971 16.784 160.813 16.784C161.571 16.784 162.248 16.9707 162.845 17.344C163.453 17.7067 163.923 18.2027 164.253 18.832C164.595 19.4613 164.755 20.1813 164.733 20.992L164.717 21.68H158.637C158.755 22.288 159.043 22.768 159.501 23.12C159.971 23.472 160.563 23.648 161.277 23.648C161.661 23.648 162.008 23.5893 162.317 23.472C162.637 23.3547 162.979 23.1467 163.341 22.848L164.397 24.32C163.939 24.7253 163.411 25.04 162.813 25.264C162.227 25.4773 161.64 25.584 161.053 25.584ZM160.829 18.672C159.624 18.672 158.899 19.216 158.653 20.304H162.653V20.24C162.621 19.7813 162.429 19.408 162.077 19.12C161.736 18.8213 161.32 18.672 160.829 18.672Z" fill="#101010" fill-opacity="0.7"></path><path d="M169.436 25.584C168.658 25.584 167.964 25.456 167.356 25.2C166.748 24.944 166.258 24.5813 165.884 24.112L167.26 22.944C167.58 23.296 167.943 23.552 168.348 23.712C168.754 23.8613 169.164 23.936 169.58 23.936C169.911 23.936 170.178 23.8613 170.38 23.712C170.583 23.5627 170.684 23.3547 170.684 23.088C170.684 22.8533 170.588 22.6667 170.396 22.528C170.204 22.4 169.746 22.24 169.02 22.048C167.943 21.7707 167.18 21.392 166.732 20.912C166.338 20.4853 166.14 19.9573 166.14 19.328C166.14 18.8267 166.29 18.3893 166.588 18.016C166.887 17.632 167.282 17.3333 167.772 17.12C168.263 16.9067 168.796 16.8 169.372 16.8C170.034 16.8 170.658 16.9173 171.244 17.152C171.831 17.3867 172.322 17.7067 172.716 18.112L171.532 19.408C171.234 19.1307 170.887 18.9013 170.492 18.72C170.108 18.528 169.751 18.432 169.42 18.432C168.652 18.432 168.268 18.6987 168.268 19.232C168.279 19.488 168.396 19.6907 168.62 19.84C168.834 19.9893 169.319 20.1653 170.076 20.368C171.09 20.6347 171.804 20.9867 172.22 21.424C172.583 21.7973 172.764 22.2933 172.764 22.912C172.764 23.424 172.615 23.8827 172.316 24.288C172.028 24.6933 171.634 25.0133 171.132 25.248C170.631 25.472 170.066 25.584 169.436 25.584Z" fill="#101010" fill-opacity="0.7"></path><path d="M78.968 51.152L74 34.352H78.392L80.768 42.92C80.88 43.32 80.976 43.72 81.056 44.12C81.136 44.52 81.208 44.896 81.272 45.248C81.336 44.864 81.408 44.488 81.488 44.12C81.584 43.736 81.704 43.328 81.848 42.896L84.248 36.416H87.656L90.032 42.896C90.176 43.312 90.296 43.704 90.392 44.072C90.504 44.424 90.6 44.768 90.68 45.104C90.712 44.8 90.76 44.472 90.824 44.12C90.888 43.768 90.984 43.36 91.112 42.896L93.488 34.352H97.76L92.744 51.152H89.432L85.784 42.272L82.448 51.152H78.968Z" fill="#101010"></path><path d="M107.223 51.392C105.959 51.392 104.791 51.176 103.719 50.744C102.647 50.312 101.719 49.704 100.935 48.92C100.151 48.136 99.5433 47.216 99.1113 46.16C98.6793 45.104 98.4633 43.944 98.4633 42.68C98.4633 41.416 98.6793 40.256 99.1113 39.2C99.5433 38.128 100.151 37.2 100.935 36.416C101.719 35.632 102.647 35.024 103.719 34.592C104.791 34.16 105.959 33.944 107.223 33.944C108.503 33.944 109.679 34.16 110.751 34.592C111.823 35.024 112.751 35.632 113.535 36.416C114.319 37.2 114.927 38.128 115.359 39.2C115.791 40.256 116.007 41.416 116.007 42.68C116.007 43.928 115.791 45.088 115.359 46.16C114.927 47.216 114.319 48.136 113.535 48.92C112.751 49.704 111.823 50.312 110.751 50.744C109.679 51.176 108.503 51.392 107.223 51.392ZM107.223 47.36C108.071 47.36 108.823 47.16 109.479 46.76C110.135 46.344 110.655 45.784 111.039 45.08C111.423 44.376 111.615 43.576 111.615 42.68C111.615 41.768 111.423 40.96 111.039 40.256C110.655 39.552 110.135 39 109.479 38.6C108.823 38.2 108.071 38 107.223 38C106.375 38 105.623 38.2 104.967 38.6C104.311 39 103.791 39.552 103.407 40.256C103.039 40.96 102.855 41.768 102.855 42.68C102.855 43.576 103.039 44.376 103.407 45.08C103.791 45.784 104.311 46.344 104.967 46.76C105.623 47.16 106.375 47.36 107.223 47.36Z" fill="#101010"></path><path d="M126.601 51.392C125.337 51.392 124.169 51.176 123.097 50.744C122.025 50.312 121.096 49.704 120.312 48.92C119.528 48.136 118.92 47.216 118.488 46.16C118.056 45.104 117.84 43.944 117.84 42.68C117.84 41.416 118.056 40.256 118.488 39.2C118.92 38.128 119.528 37.2 120.312 36.416C121.096 35.632 122.025 35.024 123.097 34.592C124.169 34.16 125.337 33.944 126.601 33.944C127.881 33.944 129.057 34.16 130.129 34.592C131.201 35.024 132.129 35.632 132.913 36.416C133.697 37.2 134.304 38.128 134.736 39.2C135.168 40.256 135.385 41.416 135.385 42.68C135.385 43.928 135.168 45.088 134.736 46.16C134.304 47.216 133.697 48.136 132.913 48.92C132.129 49.704 131.201 50.312 130.129 50.744C129.057 51.176 127.881 51.392 126.601 51.392ZM126.601 47.36C127.449 47.36 128.201 47.16 128.857 46.76C129.513 46.344 130.033 45.784 130.417 45.08C130.8 44.376 130.993 43.576 130.993 42.68C130.993 41.768 130.8 40.96 130.417 40.256C130.033 39.552 129.513 39 128.857 38.6C128.201 38.2 127.449 38 126.601 38C125.753 38 125.001 38.2 124.345 38.6C123.689 39 123.168 39.552 122.785 40.256C122.417 40.96 122.233 41.768 122.233 42.68C122.233 43.576 122.417 44.376 122.785 45.08C123.168 45.784 123.689 46.344 124.345 46.76C125.001 47.16 125.753 47.36 126.601 47.36Z" fill="#101010"></path><path d="M138.25 51.152V34.352H145.378C147.026 34.352 148.482 34.712 149.746 35.432C151.01 36.136 151.994 37.12 152.698 38.384C153.418 39.648 153.778 41.104 153.778 42.752C153.778 44.4 153.418 45.856 152.698 47.12C151.994 48.384 151.01 49.376 149.746 50.096C148.482 50.8 147.026 51.152 145.378 51.152H138.25ZM145.258 38.12H142.57V47.384H145.258C146.506 47.384 147.506 46.96 148.258 46.112C149.026 45.248 149.41 44.128 149.41 42.752C149.41 41.376 149.026 40.264 148.258 39.416C147.506 38.552 146.506 38.12 145.258 38.12Z" fill="#101010"></path><path d="M156.643 51.152V34.352H160.459L165.187 42.008L169.963 34.352H173.634V51.152H169.435V46.184C169.435 45.288 169.451 44.448 169.483 43.664C169.515 42.88 169.563 42.128 169.627 41.408L165.882 47.192H164.299L160.674 41.48C160.738 42.152 160.779 42.872 160.795 43.64C160.827 44.408 160.842 45.256 160.842 46.184V51.152H156.643Z" fill="#101010"></path><path d="M175.336 51.152L182.008 34.352H185.608L192.208 51.152H187.864L186.736 48.104H180.712L179.584 51.152H175.336ZM182.632 42.92L181.888 44.912H185.56L184.792 42.872C184.616 42.36 184.432 41.84 184.24 41.312C184.064 40.784 183.896 40.248 183.736 39.704C183.576 40.232 183.408 40.752 183.232 41.264C183.056 41.776 182.856 42.328 182.632 42.92Z" fill="#101010"></path><path d="M193.92 51.152V34.352H201.552C202.656 34.352 203.64 34.584 204.504 35.048C205.384 35.512 206.072 36.152 206.568 36.968C207.08 37.768 207.336 38.68 207.336 39.704C207.336 40.84 207.056 41.848 206.496 42.728C205.952 43.592 205.216 44.256 204.288 44.72L208.032 51.152H203.112L199.824 45.32H198.024V51.152H193.92ZM198.024 42.08H201.096C201.72 42.08 202.208 41.888 202.56 41.504C202.912 41.12 203.088 40.608 203.088 39.968C203.088 39.344 202.888 38.848 202.488 38.48C202.088 38.096 201.528 37.904 200.808 37.904H198.024V42.08Z" fill="#101010"></path><path d="M213.807 51.152V38.12H208.791V34.352H223.287V38.12H218.127V51.152H213.807Z" fill="#101010"></path><path d="M224.567 51.416C223.879 51.416 223.351 51.224 222.983 50.84C222.615 50.456 222.431 49.912 222.431 49.208C222.431 48.568 222.623 48.048 223.007 47.648C223.407 47.232 223.927 47.024 224.567 47.024C225.239 47.024 225.759 47.216 226.127 47.6C226.511 47.968 226.703 48.504 226.703 49.208C226.703 49.864 226.503 50.4 226.103 50.816C225.703 51.216 225.191 51.416 224.567 51.416Z" fill="#101010"></path><defs><clipPath id="clip0"><rect width="64" height="64" fill="white" transform="translate(0 0.5)"></rect></clipPath></defs></svg> 