<?xml version="1.0" encoding="UTF-8"?> <svg xmlns="http://www.w3.org/2000/svg" width="18" height="17" viewBox="0 0 18 17" fill="none"><path d="M0.667969 1.58594C0.492188 1.58594 0.333984 1.52148 0.193359 1.39258C0.0644531 1.25195 0 1.09375 0 0.917969C0 0.730469 0.0644531 0.572266 0.193359 0.443359C0.333984 0.314453 0.492188 0.25 0.667969 0.25H3.05859C3.21094 0.25 3.35156 0.291016 3.48047 0.373047C3.60938 0.455078 3.69141 0.578125 3.72656 0.742188L6.43359 10.5508H13.8516L16.3125 4.89062H8.08594C7.91016 4.89062 7.75781 4.83203 7.62891 4.71484C7.51172 4.58594 7.45313 4.42188 7.45313 4.22266C7.45313 4.04688 7.51172 3.89453 7.62891 3.76562C7.75781 3.625 7.91016 3.55469 8.08594 3.55469H17.332C17.4375 3.55469 17.5371 3.58398 17.6309 3.64258C17.7363 3.70117 17.8242 3.77734 17.8945 3.87109C17.9414 3.95312 17.9707 4.05273 17.9824 4.16992C17.9941 4.28711 17.9766 4.39844 17.9297 4.50391L14.9063 11.5C14.8594 11.6172 14.7773 11.7109 14.6602 11.7812C14.5547 11.8516 14.4375 11.8867 14.3086 11.8867H5.94141C5.78906 11.8867 5.6543 11.8398 5.53711 11.7461C5.41992 11.6523 5.34375 11.5352 5.30859 11.3945L2.56641 1.58594H0.667969ZM5.30859 16.5625C4.88672 16.5625 4.5293 16.416 4.23633 16.123C3.94336 15.8301 3.79688 15.4727 3.79688 15.0508C3.79688 14.6523 3.94336 14.3008 4.23633 13.9961C4.5293 13.6914 4.88672 13.5391 5.30859 13.5391C5.73047 13.5391 6.08789 13.6914 6.38086 13.9961C6.67383 14.2891 6.82031 14.6406 6.82031 15.0508C6.82031 15.4727 6.67383 15.8301 6.38086 16.123C6.08789 16.416 5.73047 16.5625 5.30859 16.5625ZM14.7305 16.5625C14.3438 16.5625 14.0039 16.4336 13.7109 16.1758C13.4297 15.9062 13.2773 15.5664 13.2539 15.1562C13.2188 14.7578 13.3359 14.4004 13.6055 14.084C13.875 13.7559 14.2148 13.5742 14.625 13.5391C15.0469 13.5273 15.416 13.6562 15.7324 13.9258C16.0488 14.1953 16.2188 14.5352 16.2422 14.9453C16.2539 15.1562 16.2305 15.3555 16.1719 15.543C16.1133 15.7305 16.0195 15.9062 15.8906 16.0703C15.75 16.2109 15.5918 16.3223 15.416 16.4043C15.2402 16.4863 15.0469 16.5391 14.8359 16.5625H14.7305Z" fill="white"></path></svg> 