<?xml version="1.0" encoding="UTF-8"?> <svg xmlns="http://www.w3.org/2000/svg" width="280" height="53" viewBox="0 0 280 53" fill="none"><g transform="translate(0, 6.5)"><svg width="40" height="40" viewBox="0 0 100 100" fill="none"><path d="M40 20C40 20 45 5 60 5C75 5 80 20 80 20C80 20 85 30 70 45C55 60 20 80 10 50C0 20 15 10 40 20Z" fill="#6E5A54"></path><path d="M50 50C50 50 55 40 65 40C75 40 80 50 80 50C80 50 85 55 75 65C65 75 50 80 40 65C30 50 40 45 50 50Z" fill="#EFA39A"></path><circle cx="65" cy="55" r="2" fill="white"></circle><circle cx="58" cy="20" r="3" fill="white"></circle></svg></g><g transform="translate(52, 0)"><text x="0" y="21" font-family="Arial, sans-serif" font-size="17" font-weight="900" letter-spacing="-0.5" fill="#6E5A54"> CINNAMON </text><text x="110" y="21" font-family="Arial, sans-serif" font-size="17" font-weight="900" letter-spacing="-0.5" fill="#EFA39A"> DESIRE </text><text x="0" y="32" font-family="Arial, sans-serif" font-size="7" font-weight="bold" letter-spacing="0.28em" fill="#9C8A84"> ПИТОМНИК ШОТЛАНДСКИХ КОШЕК </text></g></svg> 