<?xml version="1.0" encoding="UTF-8"?> <svg xmlns="http://www.w3.org/2000/svg" width="64" height="64" viewBox="0 0 64 64" fill="none"><path fill-rule="evenodd" clip-rule="evenodd" d="M1.76191 59.9366L4.13002 45.728L16.8579 33.0001L2.71576 18.858C1.15366 17.2959 1.15367 14.7632 2.71576 13.2011L11.201 4.71583C12.7631 3.15373 15.2958 3.15373 16.8579 4.71583L31 18.858L46.5564 3.30155C46.7951 3.0629 47.0428 2.83884 47.2984 2.62936C51.2265 -0.589107 57.032 -0.365043 60.6986 3.30155C64.3652 6.96815 64.5892 12.7737 61.3708 16.7017C61.1613 16.9573 60.9372 17.205 60.6986 17.4437L45.1422 33.0001L59.2843 47.1422C60.8464 48.7043 60.8464 51.237 59.2843 52.7991L50.799 61.2844C49.2369 62.8465 46.7043 62.8465 45.1422 61.2844L31 47.1422L18.2722 59.8701L4.06349 62.2382C2.70985 62.4638 1.5363 61.2903 1.76191 59.9366ZM33.8284 44.3138L47.9706 58.4559L56.4559 49.9707L50.0919 43.6067L45.8493 47.8493C45.0682 48.6304 43.8019 48.6304 43.0208 47.8493C42.2398 47.0683 42.2398 45.802 43.0208 45.0209L47.2635 40.7783L42.3137 35.8285L33.8284 44.3138ZM28.1716 21.6864L23.2219 16.7366L18.9792 20.9793C18.1982 21.7603 16.9318 21.7603 16.1508 20.9793C15.3697 20.1982 15.3697 18.9319 16.1508 18.1509L20.3934 13.9082L14.0295 7.54426L5.54419 16.0295L19.6863 30.1717L28.1716 21.6864ZM6.1678 57.8323L7.20182 51.6282L12.3719 56.7983L6.1678 57.8323ZM50.7991 21.6863L16.8579 55.6275L8.37266 47.1422L42.3138 13.201L50.7991 21.6863ZM53.6275 18.8579L45.1422 10.3726L47.2635 8.2513L55.7488 16.7366L53.6275 18.8579ZM58.5186 13.8495L50.1506 5.48153C52.4938 3.81161 55.7679 4.02775 57.8701 6.12998C59.9724 8.2322 60.1885 11.5063 58.5186 13.8495Z" fill="black"></path></svg> 