<?xml version="1.0" encoding="UTF-8"?> <svg xmlns="http://www.w3.org/2000/svg" width="64" height="64" viewBox="0 0 64 64" fill="none"><g clip-path="url(#clip0)"><path fill-rule="evenodd" clip-rule="evenodd" d="M30.9299 0.310362C31.5833 -0.103454 32.4167 -0.103454 33.0701 0.310362L63.0701 19.3104C63.6527 19.6793 64.0041 20.3224 64 21.012C63.9958 21.7016 63.6367 22.3404 63.0498 22.7023L56.9738 26.4492L63.0701 30.3102C63.6527 30.6791 64.0041 31.3222 64 32.0118C63.9958 32.7014 63.6367 33.3402 63.0498 33.7021L56.9735 37.4492L63.0701 41.3104C63.6527 41.6793 64.0041 42.3224 64 43.012C63.9958 43.7016 63.6367 44.3404 63.0498 44.7023L33.0498 63.2023C32.4062 63.5992 31.5938 63.5992 30.9502 63.2023L0.950223 44.7023C0.363259 44.3404 0.00416844 43.7016 3.6047e-05 43.012C-0.00409634 42.3224 0.347312 41.6793 0.929896 41.3104L7.0265 37.4492L0.950223 33.7021C0.363259 33.3402 0.00416844 32.7014 3.6047e-05 32.0118C-0.00409634 31.3222 0.347312 30.6791 0.929896 30.3102L7.02618 26.4492L0.950223 22.7023C0.363259 22.3404 0.00416844 21.7016 3.6047e-05 21.012C-0.00409634 20.3224 0.347312 19.6793 0.929896 19.3104L30.9299 0.310362ZM10.8143 39.785L5.77366 42.9774L32 59.1503L58.2263 42.9774L53.1857 39.785L33.0498 52.2021C32.4062 52.599 31.5938 52.599 30.9502 52.2021L10.8143 39.785ZM33.0498 41.2023L53.186 28.785L58.2263 31.9772L32 48.1501L5.77366 31.9772L10.814 28.785L30.9502 41.2023C31.5938 41.5992 32.4062 41.5992 33.0498 41.2023ZM5.77366 20.9774L32 37.1503L58.2263 20.9774L32 4.36737L5.77366 20.9774Z" fill="black"></path></g><defs><clipPath id="clip0"><rect width="64" height="64" fill="white"></rect></clipPath></defs></svg> 