<?xml version="1.0" encoding="UTF-8"?> <svg xmlns="http://www.w3.org/2000/svg" width="64" height="64" viewBox="0 0 64 64" fill="none"><g clip-path="url(#clip0)"><path d="M20 19C18.8954 19 18 19.8954 18 21C18 22.1046 18.8954 23 20 23H30C31.1046 23 32 22.1046 32 21C32 19.8954 31.1046 19 30 19H20Z" fill="black"></path><path d="M20 26C18.8954 26 18 26.8954 18 28C18 29.1046 18.8954 30 20 30H42C43.1046 30 44 29.1046 44 28C44 26.8954 43.1046 26 42 26H20Z" fill="black"></path><path fill-rule="evenodd" clip-rule="evenodd" d="M20.6751 8.00001L26.49 2.47588C29.5777 -0.457455 34.4223 -0.457457 37.51 2.47588L43.3249 8.00001H51C52.1046 8.00001 53 8.89544 53 10V17.1914L63.3775 27.05C63.775 27.4276 64 27.9518 64 28.5V62C64 63.1046 63.1046 64 62 64H2C0.89543 64 0 63.1046 0 62V28.5C0 27.9518 0.22504 27.4276 0.622501 27.05L11 17.1914V10C11 8.89544 11.8954 8.00001 13 8.00001H20.6751ZM29.245 5.37588C30.7889 3.90921 33.2111 3.90921 34.755 5.37588L37.5172 8.00001H26.4828L29.245 5.37588ZM11 22.7086L4.86515 28.5367L11 34.6716V22.7086ZM4 33.3284V57.1716L15.9216 45.25L4 33.3284ZM15 38.6716V12H49V38.6716L45.25 42.4216L37.6569 34.8284C34.5327 31.7042 29.4673 31.7042 26.3431 34.8284L18.75 42.4216L15 38.6716ZM53 34.6716L59.1348 28.5367L53 22.7086V34.6716ZM48.0784 45.25L60 33.3284V57.1716L48.0784 45.25ZM57.1716 60H6.82843L29.1716 37.6569C30.7337 36.0948 33.2663 36.0948 34.8284 37.6569L57.1716 60Z" fill="black"></path></g><defs><clipPath id="clip0"><rect width="64" height="64" fill="white"></rect></clipPath></defs></svg> 