<?xml version="1.0" encoding="UTF-8"?> <svg xmlns="http://www.w3.org/2000/svg" width="64" height="64" viewBox="0 0 64 64" fill="none"><g clip-path="url(#clip0)"><path fill-rule="evenodd" clip-rule="evenodd" d="M45.3358 1.1942C44.5589 -0.285127 42.441 -0.285096 41.6642 1.1942L35.7969 12.3662C33.8607 16.0531 34.8084 20.595 38.0575 23.1999C41.2379 25.7498 45.7621 25.7498 48.9425 23.1999C52.1916 20.595 53.1393 16.0531 51.2031 12.3662L45.3358 1.1942ZM39.3383 14.226L43.5 6.30151L47.6617 14.226C48.7078 16.2179 48.1958 18.6718 46.4404 20.0791C44.7222 21.4567 42.2778 21.4567 40.5596 20.0791C38.8042 18.6718 38.2922 16.2179 39.3383 14.226Z" fill="black"></path><path fill-rule="evenodd" clip-rule="evenodd" d="M19.1455 11.2274C19.9364 9.7432 22.0636 9.74315 22.8545 11.2274L31.069 26.6422C33.6637 31.5113 32.4025 37.5396 28.0734 40.9601C23.9269 44.2364 18.0731 44.2364 13.9266 40.9601C9.5975 37.5396 8.33626 31.5113 10.931 26.6422L19.1455 11.2274ZM21 16.2527L14.4611 28.5233C12.776 31.6854 13.5951 35.6002 16.4065 37.8216C19.0993 39.9492 22.9007 39.9492 25.5935 37.8216C28.4049 35.6002 29.224 31.6854 27.5389 28.5233L21 16.2527Z" fill="black"></path><path d="M8.07811 48.3155C7.14776 47.72 5.91088 47.9915 5.31546 48.9219C4.72003 49.8522 4.99155 51.0891 5.92189 51.6845L9.04689 53.6845C11.6091 55.3243 14.8909 55.3243 17.4531 53.6845C18.7009 52.886 20.2991 52.886 21.5469 53.6845C24.1091 55.3243 27.3909 55.3243 29.9531 53.6845C31.2009 52.886 32.7991 52.886 34.0469 53.6845C36.6091 55.3243 39.8909 55.3243 42.4531 53.6845C43.7009 52.886 45.2991 52.886 46.5469 53.6845C49.1091 55.3243 52.3909 55.3243 54.9531 53.6845L58.0781 51.6845C59.0085 51.0891 59.28 49.8522 58.6845 48.9219C58.0891 47.9915 56.8522 47.72 55.9219 48.3155L52.7969 50.3155C51.5491 51.114 49.9509 51.114 48.7031 50.3155C46.1409 48.6757 42.8591 48.6757 40.2969 50.3155C39.0491 51.114 37.4509 51.114 36.2031 50.3155C33.6409 48.6757 30.3591 48.6757 27.7969 50.3155C26.5491 51.114 24.9509 51.114 23.7031 50.3155C21.1409 48.6757 17.8591 48.6757 15.2969 50.3155C14.0491 51.114 12.4509 51.114 11.2031 50.3155L8.07811 48.3155Z" fill="black"></path><path d="M2 60C0.89543 60 0 60.8954 0 62C0 63.1046 0.89543 64 2 64H62C63.1046 64 64 63.1046 64 62C64 60.8954 63.1046 60 62 60H2Z" fill="black"></path></g><defs><clipPath id="clip0"><rect width="64" height="64" fill="white"></rect></clipPath></defs></svg> 