<?xml version="1.0" encoding="UTF-8"?> <svg xmlns="http://www.w3.org/2000/svg" width="64" height="64" viewBox="0 0 64 64" fill="none"><g clip-path="url(#clip0)"><path fill-rule="evenodd" clip-rule="evenodd" d="M2.69931 11.8727C19.6703 9.32705 34.8211 20.47 38.568 35.9782C42.6228 27.6472 51.6789 22.1453 61.7654 23.4528L62.2571 23.5166C63.2825 23.6495 64.0376 24.5421 63.9986 25.5754L63.8572 29.321C63.5081 38.5725 57.6036 46.1728 49.6155 49.2602C49.6448 49.2784 49.674 49.2968 49.7031 49.3154C50.9509 50.114 52.5491 50.114 53.7969 49.3154L56.9219 47.3154C57.8522 46.72 59.0891 46.9915 59.6845 47.9219C60.28 48.8522 60.0085 50.0891 59.0781 50.6845L55.9531 52.6845C53.3909 54.3243 50.1091 54.3243 47.5469 52.6845C46.2991 51.8859 44.7009 51.8859 43.4531 52.6845C40.8909 54.3243 37.6091 54.3243 35.0469 52.6845C33.7991 51.8859 32.2009 51.8859 30.9531 52.6845C28.3909 54.3243 25.1091 54.3243 22.5469 52.6845C21.2991 51.8859 19.7009 51.8859 18.4531 52.6845C15.8909 54.3243 12.6091 54.3243 10.0469 52.6845L6.92189 50.6845C5.99155 50.0891 5.72003 48.8522 6.31546 47.9219C6.91088 46.9915 8.14776 46.72 9.07811 47.3154L12.2031 49.3154C13.4509 50.114 15.0491 50.114 16.2969 49.3154C16.9535 48.8952 17.6573 48.5827 18.3842 48.3779C7.61662 43.2976 0 32.3505 0 19.4097V14C0 13.01 0.724279 12.169 1.70332 12.0221L2.69931 11.8727ZM4 15.7312V19.4097C4 35.1369 16.8569 47.4987 32.1006 47.4145L31.8058 47.1602C25.796 41.9752 20.4452 36.0722 15.8737 29.5835L14.865 28.1519C14.2289 27.2489 14.4451 26.0012 15.3481 25.365C16.2511 24.7288 17.4988 24.9451 18.135 25.8481L19.1436 27.2797C23.5267 33.5008 28.6567 39.1604 34.4188 44.1316L35.4098 44.9866C36.351 27.7082 21.364 13.562 4 15.7312ZM43.8855 46.6058C52.5144 45.5326 59.514 38.3402 59.8601 29.1702L59.9308 27.2948C49.7474 26.6897 41.141 34.4597 40.3745 44.3271L43.8535 41.4197L49.1516 35.6476C49.8985 34.8338 51.1637 34.7796 51.9774 35.5265C52.7912 36.2735 52.8453 37.5386 52.0984 38.3524L46.6215 44.3194L43.8855 46.6058Z" fill="black"></path></g><defs><clipPath id="clip0"><rect width="64" height="64" fill="white"></rect></clipPath></defs></svg> 