<?xml version="1.0" encoding="UTF-8"?> <svg xmlns="http://www.w3.org/2000/svg" width="33" height="32" viewBox="0 0 33 32" fill="none"><path d="M4.32261 11.1361C3.87484 11.4441 3.53183 11.8815 3.33953 12.3897C3.14723 12.898 3.11481 13.4529 3.24661 13.9801L5.91328 24.6468C6.05748 25.2237 6.39038 25.7358 6.85905 26.1019C7.32773 26.4679 7.90529 26.6667 8.49995 26.6668H24.4999C25.0946 26.6667 25.6722 26.4679 26.1408 26.1019C26.6095 25.7358 26.9424 25.2237 27.0866 24.6468L29.7533 13.9801C29.8848 13.453 29.8522 12.8984 29.6599 12.3903C29.4676 11.8823 29.1246 11.4451 28.677 11.1372C28.2294 10.8294 27.6985 10.6656 27.1552 10.6678C26.612 10.67 26.0824 10.838 25.6373 11.1495L21.7266 13.8868L18.9759 7.00945C18.778 6.51458 18.4364 6.09036 17.995 5.79154C17.5537 5.49272 17.0329 5.33301 16.4999 5.33301C15.967 5.33301 15.4462 5.49272 15.0049 5.79154C14.5635 6.09036 14.2219 6.51458 14.0239 7.00945L11.2733 13.8868L7.36261 11.1495C6.91758 10.8378 6.38799 10.6696 5.8447 10.6672C5.30141 10.6648 4.77036 10.8284 4.32261 11.1361ZM24.4999 24.0001H8.49995L5.83328 13.3335L11.8106 17.5175C11.8929 17.5751 11.9872 17.6134 12.0864 17.6294C12.1856 17.6455 12.2872 17.6389 12.3835 17.6102C12.4798 17.5814 12.5683 17.5313 12.6425 17.4635C12.7167 17.3958 12.7746 17.3121 12.8119 17.2188L16.4999 8.00012L20.1879 17.2188C20.2253 17.3119 20.2832 17.3954 20.3573 17.463C20.4314 17.5306 20.5198 17.5806 20.6159 17.6094C20.712 17.6381 20.8134 17.6447 20.9124 17.6288C21.0115 17.6129 21.1057 17.5748 21.1879 17.5175L27.1666 13.3335L24.4999 24.0001Z" fill="white"></path></svg> 