<?xml version="1.0" encoding="UTF-8"?> <svg xmlns="http://www.w3.org/2000/svg" width="32" height="32" viewBox="0 0 32 32" fill="none"><path d="M28 5C28.5523 5 29 5.44772 29 6C29 6.55228 28.5523 7 28 7V5ZM11 6H10C10 5.44772 10.4477 5 11 5V6ZM11 14H12C12 14.5523 11.5523 15 11 15V14ZM1 16H0C0 15.7348 0.105357 15.4804 0.292893 15.2929L1 16ZM1 23V24C0.447715 24 0 23.5523 0 23H1ZM28 22C28.5523 22 29 22.4477 29 23C29 23.5523 28.5523 24 28 24V22ZM6 8L5.10557 7.55279C5.27496 7.214 5.62123 7 6 7V8ZM29 9C29.5523 9 30 9.44772 30 10C30 10.5523 29.5523 11 29 11V9ZM20 11C19.4477 11 19 10.5523 19 10C19 9.44772 19.4477 9 20 9V11ZM31 13C31.5523 13 32 13.4477 32 14C32 14.5523 31.5523 15 31 15V13ZM22 15C21.4477 15 21 14.5523 21 14C21 13.4477 21.4477 13 22 13V15ZM29 17C29.5523 17 30 17.4477 30 18C30 18.5523 29.5523 19 29 19V17ZM24 19C23.4477 19 23 18.5523 23 18C23 17.4477 23.4477 17 24 17V19ZM28 7H11V5H28V7ZM11 15H3V13H11V15ZM3.70711 14.7071L1.70711 16.7071L0.292893 15.2929L2.29289 13.2929L3.70711 14.7071ZM2 16V23H0V16H2ZM12 6V8H10V6H12ZM12 8V14H10V8H12ZM11 9H6V7H11V9ZM6.89443 8.44721L3.89443 14.4472L2.10557 13.5528L5.10557 7.55279L6.89443 8.44721ZM29 11H20V9H29V11ZM31 15H22V13H31V15ZM29 19H24V17H29V19ZM24 22H28V24H24V22ZM11 22H18V24H11V22ZM1 22H5V24H1V22Z" fill="white"></path><path d="M18 23C18 24.6569 19.3431 26 21 26C22.6569 26 24 24.6569 24 23C24 21.3431 22.6569 20 21 20C19.3431 20 18 21.3431 18 23Z" stroke="white" stroke-width="2"></path><path d="M5 23C5 24.6569 6.34315 26 8 26C9.65685 26 11 24.6569 11 23C11 21.3431 9.65685 20 8 20C6.34315 20 5 21.3431 5 23Z" stroke="white" stroke-width="2"></path></svg> 